<?xml version="1.0" encoding="utf-8"?>
<!-- Generator: Adobe Illustrator 27.2.0, SVG Export Plug-In . SVG Version: 6.00 Build 0)  -->
<svg version="1.1" id="Capa_1" xmlns="http://www.w3.org/2000/svg" xmlns:xlink="http://www.w3.org/1999/xlink" x="0px" y="0px"
	  width="486.24" height="106.3" viewBox="0 0 486.24 106.3" style="enable-background:new 0 0 486.24 106.3;" xml:space="preserve">
<style type="text/css">
	.st0{fill-rule:evenodd;clip-rule:evenodd;fill:#231F20;}
	.st1{fill-rule:evenodd;clip-rule:evenodd;fill:#5CB13E;}
	.st2{fill:#020203;}
</style>
<path class="st0" d="M13.12,0c-0.45,3.68-0.88,7.54-1.33,11.68c-0.45,4.14-0.62,8.76-0.62,13.75c0-5.16-0.23-9.95-0.68-14.43
	c-0.48-4.45-0.94-8.05-1.5-11H0l4.9,36.37h12.98L22.22,0H13.12z M32.97,0h-9.44v36.37h9.44V0z M54.62,0H33.96v7.26h5.7v29.11h9.44
	V7.26h5.53V0z M77.81,15.08c0-3-0.06-5.24-0.23-6.86c-0.11-1.53-0.34-2.75-0.77-3.57c-0.79-1.7-2.01-2.86-3.6-3.54
	c-1.56-0.71-3.68-1.05-6.29-1.05c-2.58,0-4.7,0.34-6.32,1.05c-1.62,0.74-2.83,1.9-3.63,3.54c-0.45,0.93-0.68,2.04-0.79,3.4
	c-0.11,1.33-0.17,3.68-0.17,7.03v6.21c0,2.95,0.06,5.24,0.17,6.8c0.11,1.56,0.4,2.75,0.79,3.57c0.79,1.67,2.01,2.92,3.68,3.69
	c1.67,0.74,3.74,1.08,6.26,1.08c2.5,0,4.56-0.34,6.24-1.08c1.64-0.77,2.92-2.01,3.66-3.69c0.43-0.93,0.71-2.01,0.82-3.4
	c0.11-1.39,0.17-3.68,0.17-6.97V15.08z M66.87,31.01c-0.57,0-0.96-0.23-1.13-0.79c-0.17-0.51-0.31-1.27-0.31-2.18V9.33
	c0-1.56,0.14-2.64,0.31-3.17c0.17-0.57,0.57-0.79,1.19-0.79c0.65,0,1.05,0.23,1.16,0.68c0.17,0.51,0.28,1.33,0.28,2.47v0.82v18.06
	C68.37,29.82,67.86,31.01,66.87,31.01z M101.88,25.48c0-2.64-0.28-4.42-0.82-5.39c-0.62-1.16-2.13-2.1-4.36-2.67
	c2.24-0.28,3.68-0.91,4.31-2.01c0.6-0.91,0.88-2.75,0.88-5.59c0-4.59-1.28-7.48-3.74-8.73C96.63,0.34,93.06,0,87.53,0h-6.72v36.37
	h9.44V20.04c1.19,0,2.01,0.17,2.35,0.62c0.34,0.4,0.51,1.28,0.51,2.52v13.18h8.76V25.48z M92.61,13.69
	c-0.34,0.4-1.11,0.65-2.35,0.65V6.21h0.45c0.96,0,1.67,0.28,2.01,0.82c0.28,0.4,0.4,1.02,0.4,2.01v2.01
	C93.12,12.44,92.95,13.29,92.61,13.69z M113.84,0h-9.44v36.37h9.44V0z M133.29,0h-13.63l-4.85,36.37h9.7l0.51-6.55h3.46l0.51,6.55
	h9.72L133.29,0z M125.01,23.3c0.23-2.01,0.51-4.25,0.79-6.77c0.48-3.91,0.82-6.75,1.05-8.48c0,0.94,0.17,3.01,0.51,6.35
	c0.28,3.26,0.62,6.27,0.93,8.9H125.01z"/>
<path class="st1" d="M23.1,86.43h-4.34l-0.34,1.28c-0.34-0.45-0.74-0.82-1.19-0.99c-0.43-0.23-0.99-0.28-1.62-0.28
	c-1.22,0-2.01,0.28-2.49,0.99c-0.45,0.62-0.74,1.73-0.74,3.2v6.18c0,0.79,0.06,1.42,0.11,1.96c0.06,0.51,0.23,0.91,0.51,1.3
	c0.28,0.43,0.71,0.77,1.16,0.99c0.51,0.28,1.11,0.4,1.73,0.4c0.57,0,1.02-0.11,1.39-0.34c0.4-0.17,0.79-0.51,1.25-0.94v1.39
	c0,0.57-0.06,1.05-0.17,1.33c-0.11,0.28-0.34,0.4-0.68,0.4c-0.51,0-0.82-0.34-0.82-1.11h-4.48c0,1.39,0.4,2.44,1.16,3.12
	c0.74,0.62,2.07,0.99,3.8,0.99c2.86,0,4.65-0.93,5.44-2.78c0.14-0.34,0.25-0.62,0.25-0.96c0.06-0.28,0.06-0.77,0.06-1.39V86.43z
	 M17.69,98.39c-0.28,0-0.45-0.17-0.51-0.4c-0.08-0.28-0.14-0.74-0.14-1.42v-5.7c0-0.54,0.06-0.99,0.2-1.28
	c0.06-0.34,0.23-0.51,0.51-0.51c0.28,0,0.51,0.11,0.57,0.34c0.11,0.23,0.11,0.57,0.11,1.02v0.43v5.27
	C18.42,97.65,18.2,98.39,17.69,98.39z M31.78,86.09c-0.79,0.11-1.39,0.34-1.9,0.79c-0.34,0.37-0.74,0.93-1.08,1.73l0.23-2.18h-4.68
	v16.98h4.68v-6.77c0-1.84,0.06-3.01,0.23-3.46c0.28-0.71,1.02-1.11,2.18-1.11h0.34V86.09z M42.72,96.86h-4.08v2.07
	c0,0.51-0.06,0.96-0.23,1.25c-0.11,0.31-0.34,0.48-0.71,0.48c-0.4,0-0.62-0.17-0.62-0.54c-0.06-0.34-0.06-0.79-0.06-1.3v-3.63h5.7
	v-2.24c0-0.99-0.06-1.9-0.17-2.72c-0.17-0.74-0.4-1.45-0.76-1.96c-0.45-0.68-1.02-1.13-1.7-1.45c-0.71-0.28-1.56-0.4-2.61-0.4
	c-1.19,0-2.18,0.17-2.98,0.57c-0.82,0.43-1.39,1.11-1.67,1.98c-0.23,0.51-0.34,0.96-0.34,1.47c-0.06,0.54-0.11,1.11-0.11,1.79v4.96
	c0,0.28,0,0.79,0.06,1.5c0,0.68,0.11,1.25,0.23,1.73c0.34,1.08,0.96,1.84,1.84,2.3c0.85,0.45,1.96,0.68,3.32,0.68
	c1.05,0,1.84-0.11,2.44-0.34c0.57-0.28,1.08-0.74,1.62-1.5c0.34-0.62,0.62-1.13,0.74-1.67c0.06-0.45,0.11-1.08,0.11-1.9v-0.51V96.86
	z M37.02,92.41v-2.07c0-0.45,0-0.74,0.11-0.91c0.06-0.17,0.28-0.28,0.57-0.28c0.28,0,0.48,0.11,0.54,0.34
	c0.06,0.23,0.11,0.62,0.11,1.19v0.54v1.19H37.02z M54,96.86h-4.14v2.07c0,0.51-0.06,0.96-0.17,1.25c-0.11,0.31-0.37,0.48-0.71,0.48
	c-0.4,0-0.62-0.17-0.68-0.54c0-0.34-0.06-0.79-0.06-1.3v-3.63H54v-2.24c0-0.99-0.06-1.9-0.17-2.72c-0.17-0.74-0.4-1.45-0.76-1.96
	c-0.45-0.68-1.02-1.13-1.7-1.45c-0.71-0.28-1.56-0.4-2.61-0.4c-1.19,0-2.18,0.17-3.03,0.57c-0.82,0.43-1.39,1.11-1.73,1.98
	c-0.17,0.51-0.31,0.96-0.37,1.47c-0.06,0.54-0.06,1.11-0.06,1.79v4.96c0,0.28,0,0.79,0,1.5c0.06,0.68,0.11,1.25,0.31,1.73
	c0.34,1.08,0.96,1.84,1.79,2.3c0.91,0.45,2.07,0.68,3.37,0.68c1.05,0,1.9-0.11,2.49-0.34c0.57-0.28,1.08-0.74,1.53-1.5
	c0.43-0.62,0.71-1.13,0.76-1.67c0.11-0.45,0.17-1.08,0.17-1.9v-0.51V96.86z M48.25,92.41v-2.07c0-0.45,0.06-0.74,0.17-0.91
	c0.06-0.17,0.28-0.28,0.57-0.28c0.23,0,0.4,0.11,0.54,0.34c0.06,0.23,0.11,0.62,0.11,1.19v0.54v1.19H48.25z M65.57,91.5
	c0-1.33-0.06-2.3-0.17-2.95c-0.06-0.62-0.34-1.13-0.74-1.61c-0.31-0.28-0.65-0.45-0.99-0.57c-0.34-0.06-0.74-0.11-1.22-0.11
	c-1.3,0-2.3,0.57-2.92,1.73l0.11-1.56h-4.79v16.98h4.68V91.9v-0.68c0-0.54,0-1.05,0.06-1.45c0.06-0.45,0.28-0.68,0.68-0.68
	c0.28,0,0.45,0.17,0.6,0.34c0.06,0.23,0.06,0.74,0.06,1.56v0.62v11.79h4.65V91.5z"/>
<path class="st1" d="M78.66,96.41v2.01c0,0.76-0.06,1.33-0.11,1.67c-0.11,0.34-0.34,0.57-0.68,0.57c-0.28,0-0.51-0.17-0.62-0.45
	c-0.14-0.28-0.2-0.74-0.2-1.39v-7.94c0-0.68,0-1.13,0.14-1.36c0.06-0.26,0.23-0.43,0.57-0.43c0.45,0,0.68,0.43,0.68,1.22v2.52h4.19
	c0-1.13-0.06-2.07-0.17-2.81c-0.11-0.76-0.4-1.44-0.74-1.96c-0.82-1.11-2.18-1.67-4.14-1.67c-1.16,0-2.13,0.17-2.95,0.57
	c-0.79,0.4-1.39,0.99-1.79,1.79c-0.17,0.4-0.28,0.88-0.34,1.33c-0.06,0.51-0.11,1.19-0.11,2.13v4.76c0,0.82,0.06,1.62,0.17,2.33
	c0.06,0.68,0.17,1.25,0.34,1.67c0.34,0.85,0.94,1.47,1.73,1.9c0.77,0.4,1.73,0.57,3,0.57c0.85,0,1.56-0.06,2.07-0.17
	c0.51-0.11,0.96-0.45,1.44-0.82c0.51-0.51,0.91-1.08,1.13-1.79c0.23-0.62,0.34-1.64,0.34-3.2v-1.05H78.66z M94.02,94.85
	c0-2.07-0.06-3.57-0.11-4.54c-0.11-0.99-0.34-1.79-0.68-2.3c-0.4-0.6-0.94-0.99-1.62-1.16c-0.74-0.23-1.67-0.28-2.86-0.28
	c-0.99,0-1.73,0.06-2.32,0.11c-0.57,0.11-1.08,0.4-1.47,0.79c-0.6,0.6-0.99,1.16-1.16,1.79c-0.17,0.65-0.23,1.5-0.23,2.61v0.51h4.31
	v-1.96c0-0.51,0.06-0.91,0.17-1.05c0.17-0.17,0.34-0.28,0.6-0.28c0.51,0,0.74,0.77,0.74,2.18c0,0.6-0.06,1.05-0.23,1.27
	c-0.11,0.28-0.34,0.45-0.71,0.62l-2.35,1.11c-1.13,0.45-1.84,0.99-2.12,1.39c-0.28,0.45-0.4,1.3-0.4,2.52v1.39
	c0,0.51,0,1.02,0.11,1.5c0.06,0.45,0.23,0.91,0.4,1.25c0.17,0.34,0.51,0.71,0.99,0.88c0.51,0.17,1.02,0.23,1.67,0.23
	c0.74,0,1.3-0.11,1.7-0.34c0.43-0.23,0.77-0.65,1.05-1.22v1.56h4.54V94.85z M88.7,100.66c-0.54,0-0.76-0.34-0.82-1.02v-1.11
	c0-0.91,0.11-1.61,0.28-2.01c0.17-0.28,0.59-0.68,1.22-1.19v4.25C89.38,100.32,89.15,100.66,88.7,100.66z M105.96,91.05
	c0-0.96,0-1.73-0.06-2.18c-0.06-0.51-0.23-0.96-0.48-1.39c-0.28-0.4-0.62-0.68-1.02-0.85c-0.45-0.11-0.93-0.23-1.5-0.23
	c-0.62,0-1.22,0.11-1.67,0.34c-0.51,0.23-0.96,0.62-1.39,1.22l0.14-1.5h-4.73v19.39h4.59v-3.97c0.43,0.57,0.88,0.99,1.33,1.28
	c0.45,0.23,0.99,0.34,1.62,0.34c1.39,0,2.3-0.45,2.75-1.56c0.31-0.68,0.43-1.9,0.43-3.74V91.05z M101.17,100.32
	c-0.06,0.23-0.23,0.34-0.51,0.34c-0.57,0-0.82-0.45-0.82-1.3V90.6c0-0.96,0.26-1.5,0.82-1.5c0.34,0,0.51,0.11,0.57,0.37
	c0.06,0.23,0.06,0.57,0.06,0.96v0.94v8.05C101.28,99.81,101.22,100.15,101.17,100.32z M112,82.77h-5.02v2.58H112V82.77z M112,86.46
	h-5.02v16.98H112V86.46z M120.16,100.66c-0.74,0-1.19-0.11-1.28-0.23c-0.11-0.17-0.17-0.79-0.17-1.9v-9.01h1.22v-2.66h-1.22v-2.69
	h-4.65v2.69h-1.05v2.66h1.05v8.56c0,1.05,0,1.84,0.06,2.47c0,0.71,0.11,1.11,0.23,1.39c0.34,0.62,0.94,1.16,1.67,1.33
	c0.4,0.11,1.16,0.17,2.24,0.17h1.9V100.66z M131.56,94.85c0-2.07,0-3.57-0.11-4.54c-0.06-0.99-0.28-1.79-0.62-2.3
	c-0.4-0.6-0.93-0.99-1.62-1.16c-0.74-0.23-1.67-0.28-2.89-0.28c-0.96,0-1.73,0.06-2.3,0.11c-0.57,0.11-1.08,0.4-1.56,0.79
	c-0.57,0.6-0.91,1.16-1.08,1.79c-0.17,0.65-0.28,1.5-0.28,2.61v0.51h4.37v-1.96c0-0.51,0.06-0.91,0.17-1.05
	c0.17-0.17,0.34-0.28,0.57-0.28c0.48,0,0.77,0.77,0.77,2.18c0,0.6-0.11,1.05-0.23,1.27c-0.11,0.28-0.37,0.45-0.76,0.62l-2.3,1.11
	c-1.16,0.45-1.84,0.99-2.13,1.39c-0.28,0.45-0.45,1.3-0.45,2.52v1.39c0,0.51,0.06,1.02,0.17,1.5c0.06,0.45,0.17,0.91,0.4,1.25
	c0.17,0.34,0.51,0.71,0.96,0.88c0.54,0.17,1.05,0.23,1.67,0.23c0.76,0,1.33-0.11,1.73-0.34c0.34-0.23,0.71-0.65,1.05-1.22v1.56h4.48
	V94.85z M126.25,100.66c-0.51,0-0.74-0.34-0.79-1.02v-1.11c0-0.91,0.06-1.61,0.28-2.01c0.17-0.28,0.51-0.68,1.22-1.19v4.25
	C126.96,100.32,126.74,100.66,126.25,100.66z M137.42,82.77h-4.76l0.06,20.66h4.76L137.42,82.77z"/>
<path class="st1" d="M144.4,0l4.19,78.04h19.93L172.71,0H144.4z M146.35,103.41h24.41V82.83h-24.41V103.41z"/>
<path class="st0" d="M23.27,58.42H12.33v5.58h2.47v4.31c0,1.28-0.23,2.3-0.57,3.06c-0.4,0.79-0.99,1.13-1.79,1.13
	c-1.1,0-1.61-0.91-1.61-2.75V51.11c0-1.56,0.06-2.58,0.23-3.23c0.17-0.62,0.57-0.91,1.28-0.91c0.79,0,1.3,0.34,1.67,1.08
	c0.28,0.77,0.4,1.96,0.4,3.63v3.29h8.87v-3.74c0-3.29-0.99-5.7-2.95-7.31c-1.96-1.62-4.73-2.41-8.28-2.41
	c-2.83,0-5.13,0.51-6.92,1.62c-1.73,1.02-2.89,2.64-3.4,4.76c-0.17,0.82-0.28,1.84-0.34,3.12c0,1.22,0,2.41,0,3.68v10.77v1.59
	c0,1.56,0.06,2.89,0.23,3.94c0.17,1.08,0.51,2.13,1.05,3.09c0.74,1.39,1.9,2.41,3.51,3.06c1.59,0.62,3.49,0.91,5.7,0.91
	c4.59,0,7.77-0.85,9.41-2.64c1.33-1.45,1.99-3.8,1.99-7.14V58.42z M42.77,41.56H29.14l-4.79,36.37h9.61l0.51-6.55h3.46l0.54,6.55
	h9.72L42.77,41.56z M34.47,64.86c0.26-2.01,0.54-4.25,0.82-6.77c0.45-3.91,0.79-6.69,1.08-8.48c0,0.99,0.11,3.06,0.48,6.35
	c0.28,3.26,0.62,6.26,0.91,8.9H34.47z M67.18,61.82c-0.82-1.96-2.61-3.74-5.3-5.47c-2.47-1.62-3.91-2.72-4.42-3.35
	c-0.48-0.62-0.71-1.67-0.71-3.23c0-1.9,0.51-2.81,1.56-2.81c0.68,0,1.16,0.4,1.33,1.22c0,0.17,0,0.74,0,1.7v1.67h7.88v-0.45
	c0-2.13-0.06-3.57-0.23-4.31c-0.23-1.33-0.77-2.41-1.5-3.23c-0.79-0.85-1.79-1.39-2.95-1.67c-1.19-0.23-2.81-0.34-4.82-0.34
	c-2.12,0-3.8,0.23-5.07,0.62c-1.28,0.42-2.24,1.22-2.92,2.38c-0.54,0.91-0.88,1.84-0.99,2.81c-0.17,0.99-0.23,2.13-0.23,3.51
	c0,3.8,1.05,6.61,3.12,8.56c1.19,1.16,3.43,2.89,6.72,5.24c0.71,0.77,1.16,1.39,1.28,2.01c0.11,0.65,0.23,1.62,0.23,2.89
	c0,1.96-0.57,2.92-1.73,2.92c-0.62,0-1.02-0.23-1.22-0.68c-0.17-0.45-0.23-1.28-0.23-2.52v-3.35h-7.94v1.33
	c0,2.52,0.17,4.31,0.51,5.44c0.37,1.16,0.88,2.15,1.56,3.01c0.77,0.85,1.73,1.44,2.95,1.79c1.25,0.34,2.81,0.51,4.71,0.51
	c1.73,0,3.29-0.17,4.56-0.45c1.25-0.34,2.24-0.91,2.92-1.67c0.71-0.79,1.22-1.62,1.5-2.52c0.28-0.88,0.45-2.35,0.45-4.45
	C68.2,65.73,67.86,63.3,67.18,61.82z M89.32,41.56H68.71v7.26h5.64v29.11h9.44V48.81h5.53V41.56z M107.07,70.67h-6.86v-7.99h5.92
	v-6.89h-5.92v-6.97h6.26v-7.26h-15.7v36.37h16.3V70.67z M118.52,41.56h-9.44v36.37h9.44V41.56z M137.51,70.67h-7.03l7.03-21.86
	v-7.26h-16.47v7.26h6.32l-7.23,23.81v5.3h17.38V70.67z"/>
<path class="st2" d="M240.48,21.18h-10.57v-2.13c0-1.81-0.1-2.96-0.31-3.44c-0.21-0.48-0.72-0.72-1.55-0.72
	c-0.67,0-1.17,0.22-1.51,0.66c-0.34,0.44-0.5,1.11-0.5,1.99c0,1.2,0.08,2.08,0.25,2.64c0.17,0.56,0.67,1.18,1.51,1.85
	c0.84,0.67,2.55,1.64,5.15,2.92c3.47,1.69,5.74,3.29,6.82,4.78c1.08,1.5,1.62,3.67,1.62,6.53c0,3.19-0.41,5.6-1.24,7.22
	c-0.83,1.62-2.21,2.88-4.15,3.75c-1.94,0.88-4.28,1.31-7.01,1.31c-3.03,0-5.63-0.47-7.78-1.42c-2.16-0.95-3.64-2.22-4.45-3.84
	c-0.81-1.61-1.21-4.06-1.21-7.33v-1.89h10.57v2.48c0,2.11,0.13,3.48,0.4,4.11c0.27,0.63,0.79,0.95,1.58,0.95
	c0.85,0,1.44-0.21,1.77-0.64c0.33-0.42,0.5-1.31,0.5-2.67c0-1.87-0.22-3.04-0.65-3.51c-0.45-0.47-2.77-1.87-6.94-4.19
	c-3.51-1.97-5.64-3.76-6.41-5.36c-0.77-1.6-1.15-3.51-1.15-5.72c0-3.13,0.41-5.44,1.24-6.93c0.83-1.49,2.23-2.63,4.21-3.44
	c1.98-0.81,4.28-1.21,6.9-1.21c2.6,0,4.81,0.33,6.63,0.99c1.82,0.66,3.22,1.53,4.19,2.61c0.97,1.08,1.57,2.09,1.77,3.01
	c0.21,0.93,0.31,2.37,0.31,4.34V21.18z M271.57,28.95h-15.45v8.48c0,1.77,0.13,2.91,0.38,3.43c0.26,0.51,0.75,0.77,1.48,0.77
	c0.91,0,1.51-0.34,1.82-1.02c0.31-0.68,0.46-1.99,0.46-3.94v-5.17h11.31v2.89c0,2.42-0.15,4.28-0.46,5.58
	c-0.31,1.3-1.02,2.69-2.14,4.16c-1.12,1.48-2.55,2.58-4.27,3.32c-1.72,0.74-3.88,1.11-6.48,1.11c-2.52,0-4.75-0.36-6.68-1.09
	c-1.93-0.73-3.43-1.73-4.5-3c-1.07-1.27-1.82-2.67-2.23-4.19c-0.41-1.53-0.62-3.75-0.62-6.66V22.18c0-3.43,0.46-6.13,1.39-8.11
	c0.93-1.98,2.44-3.49,4.55-4.55c2.11-1.05,4.53-1.58,7.27-1.58c3.35,0,6.11,0.64,8.29,1.91c2.18,1.27,3.7,2.95,4.58,5.05
	c0.88,2.1,1.31,5.05,1.31,8.85V28.95z M259.61,22.57V19.7c0-2.03-0.11-3.34-0.32-3.93c-0.22-0.59-0.66-0.89-1.33-0.89
	c-0.83,0-1.34,0.25-1.54,0.75c-0.2,0.5-0.3,1.86-0.3,4.06v2.87H259.61z M302.6,0.03v47.82h-11.93v-2.84
	c-1.14,1.18-2.34,2.07-3.6,2.66c-1.26,0.59-2.58,0.89-3.96,0.89c-1.85,0-3.46-0.49-4.81-1.46c-1.36-0.97-2.23-2.1-2.61-3.38
	c-0.38-1.28-0.58-3.37-0.58-6.26V19.11c0-3.01,0.19-5.15,0.58-6.41c0.38-1.26,1.26-2.37,2.64-3.32c1.38-0.95,3.02-1.43,4.93-1.43
	c1.48,0,2.83,0.27,4.06,0.8c1.23,0.53,2.35,1.33,3.35,2.4V0.03H302.6z M290.67,18.52c0-1.44-0.12-2.4-0.37-2.89
	c-0.25-0.49-0.73-0.74-1.46-0.74c-0.71,0-1.19,0.22-1.43,0.66c-0.25,0.44-0.37,1.43-0.37,2.97v19.2c0,1.59,0.12,2.64,0.35,3.15
	c0.24,0.5,0.69,0.75,1.36,0.75c0.77,0,1.28-0.28,1.54-0.84c0.26-0.56,0.38-1.93,0.38-4.12V18.52z M333.94,28.95h-15.45v8.48
	c0,1.77,0.13,2.91,0.38,3.43c0.26,0.51,0.75,0.77,1.48,0.77c0.91,0,1.51-0.34,1.82-1.02c0.31-0.68,0.46-1.99,0.46-3.94v-5.17h11.31
	v2.89c0,2.42-0.15,4.28-0.46,5.58c-0.31,1.3-1.02,2.69-2.14,4.16c-1.12,1.48-2.55,2.58-4.27,3.32c-1.72,0.74-3.88,1.11-6.48,1.11
	c-2.52,0-4.75-0.36-6.68-1.09c-1.93-0.73-3.43-1.73-4.5-3c-1.07-1.27-1.82-2.67-2.23-4.19c-0.41-1.53-0.62-3.75-0.62-6.66V22.18
	c0-3.43,0.46-6.13,1.39-8.11c0.93-1.98,2.44-3.49,4.55-4.55c2.11-1.05,4.53-1.58,7.27-1.58c3.35,0,6.11,0.64,8.29,1.91
	c2.18,1.27,3.7,2.95,4.58,5.05c0.88,2.1,1.31,5.05,1.31,8.85V28.95z M321.98,22.57V19.7c0-2.03-0.11-3.34-0.32-3.93
	c-0.22-0.59-0.66-0.89-1.33-0.89c-0.83,0-1.34,0.25-1.54,0.75c-0.2,0.5-0.3,1.86-0.3,4.06v2.87H321.98z"/>
<path class="st2" d="M240.55,84.6h-14.81v8.13c0,1.7,0.12,2.79,0.37,3.28c0.25,0.49,0.72,0.74,1.42,0.74c0.87,0,1.45-0.33,1.74-0.98
	c0.29-0.65,0.44-1.91,0.44-3.78v-4.96h10.85v2.78c0,2.32-0.15,4.11-0.44,5.35c-0.29,1.25-0.98,2.58-2.05,3.99s-2.44,2.48-4.09,3.19
	c-1.65,0.71-3.72,1.06-6.22,1.06c-2.42,0-4.55-0.35-6.4-1.05c-1.85-0.7-3.29-1.66-4.32-2.87c-1.03-1.22-1.74-2.56-2.14-4.02
	c-0.4-1.46-0.59-3.59-0.59-6.39V78.12c0-3.29,0.44-5.88,1.33-7.77c0.89-1.9,2.34-3.35,4.36-4.36c2.02-1.01,4.34-1.52,6.97-1.52
	c3.21,0,5.86,0.61,7.94,1.83c2.09,1.22,3.55,2.83,4.39,4.84c0.84,2.01,1.26,4.84,1.26,8.48V84.6z M229.08,78.49v-2.75
	c0-1.94-0.1-3.2-0.31-3.77c-0.21-0.57-0.63-0.85-1.27-0.85c-0.79,0-1.28,0.24-1.47,0.72c-0.19,0.48-0.28,1.78-0.28,3.89v2.75H229.08
	z M256.06,56.88v45.85h-11.78V56.88H256.06z M285.96,84.6h-14.81v8.13c0,1.7,0.12,2.79,0.37,3.28c0.25,0.49,0.72,0.74,1.42,0.74
	c0.87,0,1.45-0.33,1.74-0.98c0.29-0.65,0.44-1.91,0.44-3.78v-4.96h10.85v2.78c0,2.32-0.15,4.11-0.44,5.35
	c-0.29,1.25-0.98,2.58-2.05,3.99s-2.44,2.48-4.09,3.19c-1.65,0.71-3.72,1.06-6.22,1.06c-2.42,0-4.55-0.35-6.4-1.05
	c-1.85-0.7-3.29-1.66-4.32-2.87c-1.03-1.22-1.74-2.56-2.14-4.02c-0.4-1.46-0.59-3.59-0.59-6.39V78.12c0-3.29,0.44-5.88,1.33-7.77
	c0.89-1.9,2.34-3.35,4.36-4.36c2.02-1.01,4.34-1.52,6.97-1.52c3.21,0,5.86,0.61,7.94,1.83c2.09,1.22,3.55,2.83,4.39,4.84
	c0.84,2.01,1.26,4.84,1.26,8.48V84.6z M274.49,78.49v-2.75c0-1.94-0.1-3.2-0.31-3.77c-0.21-0.57-0.63-0.85-1.27-0.85
	c-0.79,0-1.28,0.24-1.47,0.72c-0.19,0.48-0.28,1.78-0.28,3.89v2.75H274.49z M314.92,79.34h-10.79V75c0-1.51-0.12-2.53-0.37-3.07
	c-0.25-0.54-0.7-0.81-1.36-0.81c-0.66,0-1.1,0.24-1.33,0.71c-0.23,0.47-0.34,1.53-0.34,3.17v17.73c0,1.34,0.17,2.35,0.51,3.02
	c0.34,0.67,0.84,1.01,1.5,1.01c0.77,0,1.3-0.35,1.57-1.05c0.27-0.7,0.41-2.02,0.41-3.96v-4.47h10.19c-0.02,3-0.13,5.25-0.33,6.75
	c-0.2,1.5-0.83,3.04-1.9,4.62c-1.07,1.58-2.46,2.77-4.18,3.57c-1.72,0.8-3.84,1.2-6.37,1.2c-3.23,0-5.79-0.55-7.67-1.66
	c-1.89-1.1-3.22-2.65-4.01-4.64c-0.78-1.99-1.18-4.82-1.18-8.48V77.95c0-3.19,0.32-5.6,0.96-7.22c0.64-1.62,2.01-3.07,4.11-4.35
	c2.1-1.27,4.64-1.91,7.65-1.91c2.98,0,5.53,0.63,7.65,1.9c2.11,1.27,3.52,2.86,4.22,4.79C314.57,73.08,314.92,75.81,314.92,79.34z
	 M330.34,60.14v5.92h3.09V72h-3.09v20.11c0,2.47,0.13,3.85,0.38,4.13c0.25,0.28,1.32,0.42,3.19,0.42v6.06h-4.62
	c-2.61,0-4.47-0.11-5.58-0.33c-1.11-0.22-2.1-0.72-2.95-1.5c-0.85-0.78-1.38-1.68-1.59-2.69c-0.21-1.01-0.31-3.38-0.31-7.12V72
	h-2.46v-5.95h2.46v-5.92H330.34z M347.29,65.15l-0.45,4.94c1.66-3.54,4.07-5.41,7.22-5.62v13.22c-2.1,0-3.63,0.28-4.62,0.85
	c-0.98,0.57-1.59,1.35-1.81,2.36c-0.23,1.01-0.34,3.34-0.34,6.98v14.84h-11.44V65.15H347.29z M382.5,78.35v9.2
	c0,3.38-0.17,5.86-0.51,7.43c-0.34,1.58-1.07,3.05-2.18,4.42c-1.11,1.37-2.54,2.38-4.29,3.03c-1.75,0.65-3.75,0.98-6.02,0.98
	c-2.53,0-4.67-0.28-6.43-0.84s-3.12-1.4-4.09-2.52c-0.97-1.12-1.67-2.48-2.08-4.08c-0.42-1.6-0.62-3.99-0.62-7.18v-9.63
	c0-3.49,0.38-6.22,1.13-8.18c0.75-1.96,2.11-3.54,4.08-4.73c1.96-1.19,4.47-1.78,7.53-1.78c2.57,0,4.77,0.38,6.61,1.15
	s3.26,1.76,4.26,2.99c1,1.23,1.68,2.49,2.05,3.79C382.31,73.7,382.5,75.68,382.5,78.35z M379.1,54.95l-9.32,7.67h-5.75l4.98-7.67
	H379.1z M371.06,75.51c0-1.93-0.1-3.14-0.31-3.64c-0.21-0.5-0.65-0.75-1.33-0.75s-1.13,0.25-1.36,0.75
	c-0.23,0.5-0.34,1.71-0.34,3.64v16.96c0,1.77,0.11,2.93,0.34,3.47c0.23,0.54,0.67,0.81,1.33,0.81c0.68,0,1.13-0.25,1.35-0.74
	c0.22-0.49,0.33-1.55,0.33-3.17V75.51z M397.83,65.15l-0.2,3.46c0.83-1.38,1.85-2.42,3.04-3.11c1.2-0.69,2.58-1.04,4.15-1.04
	c1.96,0,3.57,0.46,4.81,1.39c1.25,0.93,2.05,2.09,2.41,3.5c0.36,1.41,0.54,3.75,0.54,7.04v26.34h-11.44V76.7
	c0-2.59-0.08-4.16-0.25-4.73c-0.17-0.57-0.64-0.85-1.42-0.85c-0.81,0-1.32,0.33-1.53,0.98c-0.21,0.65-0.31,2.39-0.31,5.22v25.4
	h-11.44V65.15H397.83z M428.31,56.88v5.98h-11.78v-5.98H428.31z M428.31,65.15v37.58h-11.78V65.15H428.31z M457.59,79.34H446.8V75
	c0-1.51-0.12-2.53-0.37-3.07c-0.25-0.54-0.7-0.81-1.36-0.81c-0.66,0-1.1,0.24-1.33,0.71c-0.23,0.47-0.34,1.53-0.34,3.17v17.73
	c0,1.34,0.17,2.35,0.51,3.02c0.34,0.67,0.84,1.01,1.5,1.01c0.77,0,1.3-0.35,1.57-1.05c0.27-0.7,0.41-2.02,0.41-3.96v-4.47h10.19
	c-0.02,3-0.13,5.25-0.33,6.75c-0.2,1.5-0.83,3.04-1.9,4.62c-1.07,1.58-2.46,2.77-4.18,3.57c-1.72,0.8-3.84,1.2-6.37,1.2
	c-3.23,0-5.79-0.55-7.67-1.66c-1.89-1.1-3.22-2.65-4.01-4.64c-0.78-1.99-1.18-4.82-1.18-8.48V77.95c0-3.19,0.32-5.6,0.96-7.22
	c0.64-1.62,2.01-3.07,4.11-4.35c2.1-1.27,4.64-1.91,7.65-1.91c2.98,0,5.53,0.63,7.65,1.9c2.11,1.27,3.52,2.86,4.22,4.79
	C457.24,73.08,457.59,75.81,457.59,79.34z M471.17,79.7h-10.73v-2.52c0-2.91,0.33-5.15,1.01-6.73c0.67-1.58,2.02-2.97,4.04-4.18
	c2.02-1.21,4.64-1.81,7.87-1.81c3.87,0,6.79,0.68,8.75,2.05c1.96,1.37,3.14,3.05,3.54,5.04c0.4,1.99,0.59,6.09,0.59,12.3v18.86
	h-11.13v-3.35c-0.7,1.34-1.6,2.35-2.7,3.02c-1.1,0.67-2.42,1.01-3.95,1.01c-2,0-3.84-0.56-5.51-1.68c-1.67-1.12-2.51-3.58-2.51-7.38
	v-3.09c0-2.81,0.44-4.73,1.33-5.75c0.89-1.02,3.09-2.21,6.6-3.57c3.76-1.47,5.77-2.46,6.03-2.97c0.26-0.51,0.4-1.55,0.4-3.12
	c0-1.96-0.15-3.24-0.44-3.84c-0.29-0.59-0.78-0.89-1.46-0.89c-0.77,0-1.26,0.25-1.44,0.75c-0.19,0.5-0.28,1.8-0.28,3.89V79.7z
	 M474.8,84.86c-1.83,1.34-2.89,2.46-3.19,3.37c-0.29,0.91-0.44,2.21-0.44,3.91c0,1.94,0.13,3.2,0.38,3.77
	c0.25,0.57,0.76,0.85,1.52,0.85c0.72,0,1.18-0.22,1.4-0.67c0.22-0.44,0.33-1.61,0.33-3.5V84.86z"/>
</svg>
